# xmcd
#
# Track frame offsets:
#	182
#	11167
#	23437
#	34717
#	44525
#	57187
#	72970
#	85072
#	99202
#	110727
#	121572
#	132092
#
# Disc length: 1941
#
# Revision: 2
# Processed by: cddbd v1.5.1PL0 Copyright (c) Steve Scherf et al.
# Submitted via: audiograbber 1.80.04
# Normalized: r1:TDELIM( - )
#
DISCID=8e07930c
DTITLE=Various Artist - The Best of Country
DYEAR=1900
DGENRE=
TTITLE0=Dave Dudley - Get me back to Tennessee
TTITLE1=Bobby Bare - I need some good News bad
TTITLE2=Freddy Quinn - Older Men make better Lovers
TTITLE3=George Kent - Let`s just pretend
TTITLE4=David Price - I need a friend
TTITLE5=Karen o`Donnell - I know what it`s all about now, mama
TTITLE6=Dave Dudley - Six days on the road
TTITLE7=Bobby Bare - A million miles to the city
TTITLE8=Freddy Quinn - Jambalaya
TTITLE9=George Kent - I`m in a bad mood tonight
TTITLE10=Linda Manning - Bonjour tristesse
TTITLE11=Billy Grammer - The hour of separation
EXTD=
EXTT0=
EXTT1=
EXTT2=
EXTT3=
EXTT4=
EXTT5=
EXTT6=
EXTT7=
EXTT8=
EXTT9=
EXTT10=
EXTT11=
PLAYORDER=
